# xmcd
#
# Track frame offsets:
#	187
#	12330
#	32872
#	44230
#	61822
#	72465
#	96460
#	102497
#	114197
#	126005
#
# Disc length: 1845
#
# Revision: 3
# Processed by: cddbd v1.5.1PL0 Copyright (c) Steve Scherf et al.
# Submitted via: CDCOPY 4.900
# Normalized: r2:TDELIM( - )
#
DISCID=8f07330a
DTITLE=Various Artist - A Soulful Christmas
DYEAR=1900
DGENRE=
TTITLE0=Drifters - White Christmas
TTITLE1=Ray Charles - Christmas Time
TTITLE2=Jimmie Rodgers - Little Shepard
TTITLE3=Donny Hathaway - This Christmas
TTITLE4=Cadillacs - Rudolph the Red-Nosed Reindeer
TTITLE5=Luther Vandross - May Christmas Bring You Happiness
TTITLE6=Jackie Wilson - Deck the Hall
TTITLE7=Otis Redding - Merry Christmas Baby
TTITLE8=Booker T. and The MG's - Santa Claus is Coming to Town
TTITLE9=Carla Thomas - Gee Whiz, It's Christmas
EXTD=
EXTT0=
EXTT1=
EXTT2=
EXTT3=
EXTT4=
EXTT5=
EXTT6=
EXTT7=
EXTT8=
EXTT9=
PLAYORDER=
